HIERARCHY
ROOT Hips
{
	OFFSET -3.958830 18.904000 13.208200
	CHANNELS 6 Xposition Yposition Zposition Zrotation Yrotation Xrotation 
	JOINT LHipJoint
	{
		OFFSET 0.000000 0.000000 0.000000
		CHANNELS 3 Zrotation Yrotation Xrotation
		JOINT LeftUpLeg
		{
			OFFSET 1.800000 -1.400000 0.085000
			CHANNELS 3 Zrotation Yrotation Xrotation
			JOINT LeftLeg
			{
				OFFSET 2.215000 -6.000000 0.000000
				CHANNELS 3 Zrotation Yrotation Xrotation
				JOINT LeftFoot
				{
					OFFSET 2.500000 -6.900000 0.000000
					CHANNELS 3 Zrotation Yrotation Xrotation
					JOINT LeftToeBase
					{
						OFFSET 0.200000 -0.500000 1.950000
						CHANNELS 3 Zrotation Yrotation Xrotation
						End Site
						{
							OFFSET 0.000000 0.000000 0.000000
						}
					}
				}
			}
		}
	}
	JOINT RHipJoint
	{
		OFFSET 0.000000 0.000000 0.000000
		CHANNELS 3 Zrotation Yrotation Xrotation
		JOINT RightUpLeg
		{
			OFFSET -1.800000 -1.400000 0.085000
			CHANNELS 3 Zrotation Yrotation Xrotation
			JOINT RightLeg
			{
				OFFSET -2.215000 -6.000000 0.000000
				CHANNELS 3 Zrotation Yrotation Xrotation
				JOINT RightFoot
				{
					OFFSET -2.500000 -6.900000 0.000000
					CHANNELS 3 Zrotation Yrotation Xrotation
					JOINT RightToeBase
					{
						OFFSET -0.200000 -0.500000 1.950000
						CHANNELS 3 Zrotation Yrotation Xrotation
						End Site
						{
							OFFSET 0.000000 0.000000 0.000000
						}
					}
				}
			}
		}
	}
	JOINT LowerBack
	{
		OFFSET 0.000000 0.000000 0.000000
		CHANNELS 3 Zrotation Yrotation Xrotation
		JOINT Spine
		{
			OFFSET -0.087000 1.940000 -0.288900
			CHANNELS 3 Zrotation Yrotation Xrotation
			JOINT Spine1
			{
				OFFSET 0.000000 1.950000 0.060000
				CHANNELS 3 Zrotation Yrotation Xrotation
				JOINT Neck
				{
					OFFSET 0.000000 0.000000 0.000000
					CHANNELS 3 Zrotation Yrotation Xrotation
					JOINT Neck1
					{
						OFFSET 0.000000 1.600000 0.340000
						CHANNELS 3 Zrotation Yrotation Xrotation
						JOINT Head
						{
							OFFSET 0.000000 1.667000 -0.240000
							CHANNELS 3 Zrotation Yrotation Xrotation
							End Site
							{
								OFFSET 0.000000 0.000000 0.000000
							}
						}
					}
				}
				JOINT LeftShoulder
				{
					OFFSET 0.000000 0.000000 0.000000
					CHANNELS 3 Zrotation Yrotation Xrotation
					JOINT LeftArm
					{
						OFFSET 2.700000 1.550000 -0.730000
						CHANNELS 3 Zrotation Yrotation Xrotation
						JOINT LeftForeArm
						{
							OFFSET 5.450000 0.000000 0.000000
							CHANNELS 3 Zrotation Yrotation Xrotation
							JOINT LeftHand
							{
								OFFSET 3.450000 0.000000 0.000000
								CHANNELS 3 Zrotation Yrotation Xrotation
								JOINT LeftHandIndex1
								{
									OFFSET 0.750000 0.000000 0.000000
									CHANNELS 3 Zrotation Yrotation Xrotation
									End Site
									{
										OFFSET 0.000000 0.000000 0.000000
									}
								}
							}
						}
					}
				}
				JOINT RightShoulder
				{
					OFFSET 0.000000 0.000000 0.000000
					CHANNELS 3 Zrotation Yrotation Xrotation
					JOINT RightArm
					{
						OFFSET -2.700000 1.550000 -0.730000
						CHANNELS 3 Zrotation Yrotation Xrotation
						JOINT RightForeArm
						{
							OFFSET -5.450000 0.000000 0.000000
							CHANNELS 3 Zrotation Yrotation Xrotation
							JOINT RightHand
							{
								OFFSET -3.450000 0.000000 0.000000
								CHANNELS 3 Zrotation Yrotation Xrotation
								JOINT RightHandIndex1
								{
									OFFSET -0.750000 0.000000 0.000000
									CHANNELS 3 Zrotation Yrotation Xrotation
									End Site
									{
										OFFSET 0.000000 0.000000 0.000000
									}
								}
							}
						}
					}
				}
			}
		}
	}
}
MOTION
Frames: 4
Frame Time: 0.016667
0.528960 16.975740 -4.322850 -4.569100 -0.802134 9.315991 -15.697253 13.595180 4.870139 19.880846 -1.710760 -35.610418 -13.754330 14.134155 30.309256 0.537705 7.574101 1.822048 -0.311500 -0.802210 -0.067230 17.847289 -8.492070 3.166454 -13.723003 7.708802 -34.345186 6.944563 -8.281496 33.890698 -0.025101 -4.309428 2.986427 -0.663950 0.234490 -0.140890 -2.306387 -6.374343 -8.893809 16.391367 -3.253513 18.230334 3.831534 2.256203 -32.150508 4.873411 -12.157497 -13.874818 -33.282006 22.070319 29.814320 3.367090 16.199010 21.894090 1.469813 26.157139 1.830659 -53.417418 25.897830 -6.900514 40.148458 -13.152793 0.965735 -3.736396 2.674542 0.564560 -0.114380 -0.177980 -0.025140 -5.107428 -14.004105 6.411859 69.399045 -10.988978 -15.610048 -17.552010 63.888665 -4.069601 2.236783 -1.252189 -0.298390 -0.048320 0.121060 -0.148480 
0.511960 16.911090 -4.314270 -4.805237 -1.753675 9.373054 -15.766664 13.418515 5.018280 21.148236 -1.189434 -36.514174 -14.477079 15.391389 31.947023 0.633469 8.130868 1.641930 -0.327970 -0.816420 -0.089150 17.844551 -8.288487 3.208673 -13.603533 8.208533 -35.197427 6.858120 -8.455401 35.185868 -0.043557 -4.510476 2.926512 -0.664030 0.261840 -0.151440 -2.205383 -6.399669 -9.024249 15.826282 -3.221818 18.137327 5.769375 2.968208 -31.737210 4.370652 -12.281511 -13.842348 -33.268143 22.744150 29.373734 3.482510 16.983380 23.370820 2.346920 26.069704 2.414219 -54.949070 27.159578 -7.686886 38.344977 -11.829256 1.397498 -3.771961 2.662876 0.547710 -0.094390 -0.201410 -0.015260 -5.116668 -13.671893 5.996930 67.596446 -9.402773 -14.675312 -20.338181 63.801572 -5.308216 2.238759 -1.239396 -0.314240 -0.043210 0.125020 -0.144030 
0.488930 16.823480 -4.313260 -5.414241 -3.485628 8.616580 -15.860496 13.278790 5.167750 22.673167 -0.271462 -37.672341 -13.996242 17.035457 35.525967 0.772919 8.887001 1.385896 -0.285530 -0.767250 -0.048400 17.828032 -8.065080 3.221255 -13.141503 8.954222 -35.517898 6.569696 -8.650958 37.276981 -0.121083 -4.792955 2.836841 -0.644040 0.228460 -0.157210 -2.057424 -6.490786 -9.181226 15.562335 -3.009969 19.412939 7.302321 4.268251 -31.455934 4.101835 -12.246571 -13.976414 -33.294766 23.595916 30.699679 2.669370 18.332920 22.770210 3.444586 25.860998 2.797012 -55.706845 27.925345 -8.394195 34.618018 -9.552433 1.941907 -3.774784 2.619003 0.558760 -0.113330 -0.175120 -0.003980 -5.853642 -12.781434 5.850836 66.399180 -7.152469 -13.701398 -24.335145 63.282472 -7.149551 2.244396 -1.199267 -0.301650 -0.043490 0.089770 -0.150810 
0.458700 16.752130 -4.311820 -5.716690 -4.817254 7.660155 -15.946008 13.249298 5.228351 23.358344 0.447588 -38.693458 -12.308476 18.074238 39.286198 0.887672 9.414577 1.189102 -0.218680 -0.691220 0.001650 17.789420 -7.907229 3.246721 -12.838002 9.596409 -35.648883 6.215104 -8.863858 39.544137 -0.227867 -5.110763 2.719246 -0.623280 0.159500 -0.143980 -1.891893 -6.632696 -9.320556 15.124610 -2.423199 20.991562 8.296345 5.880985 -32.077189 4.102223 -12.000028 -14.434617 -33.581312 24.530114 33.485179 2.205690 18.899350 21.935350 4.324218 25.511698 3.097642 -55.325973 28.155293 -8.640042 30.373306 -8.354144 2.058605 -3.735524 2.590881 0.583640 -0.156840 -0.119300 0.003740 -6.609405 -11.824868 6.103384 65.368315 -6.319020 -13.140502 -31.386039 63.156703 -10.225818 2.212849 -1.115059 -0.257090 -0.070290 0.048350 -0.154200 
